<?xml version="1.0" encoding="utf-8"?>
<!-- Generator: Adobe Illustrator 27.7.0, SVG Export Plug-In . SVG Version: 6.00 Build 0)  -->
<svg version="1.1" id="Livello_1" xmlns="http://www.w3.org/2000/svg" xmlns:xlink="http://www.w3.org/1999/xlink" x="0px" y="0px"
	 viewBox="0 0 280 280" style="enable-background:new 0 0 280 280;" xml:space="preserve">
<style type="text/css">
	.st0{fill:#1D1D1B;}
</style>
<g>
	<g>
		<g>
			<polygon class="st0" points="118.2,117.9 118.2,119.8 108.2,119.8 108.2,125.5 116.2,125.5 116.2,127.4 108.2,127.4 108.2,135.4 
				106.1,135.4 106.1,117.9 			"/>
			<path class="st0" d="M125.6,133.8c2.6,0,4.5-2,4.5-4.5c0-2.6-1.9-4.5-4.5-4.5c-2.6,0-4.5,2-4.5,4.5
				C121.1,131.8,123,133.8,125.6,133.8 M119,129.2c0-3.6,2.8-6.5,6.6-6.5c3.8,0,6.6,2.8,6.6,6.5c0,3.6-2.8,6.5-6.6,6.5
				C121.9,135.7,119,132.8,119,129.2"/>
			<path class="st0" d="M135.4,135.4V123h2.1v1.9c0.7-1.1,2.2-2.1,4.1-2.1c3.3,0,5.2,1.9,5.2,5.1v7.5h-2.1v-7c0-2.4-1.3-3.7-3.5-3.7
				c-2.1,0-3.8,1.5-3.8,3.7v7H135.4z"/>
			<path class="st0" d="M152,129.2c0,2.6,1.8,4.6,4.4,4.6c2.6,0,4.6-2.1,4.6-4.6c0-2.6-1.9-4.6-4.6-4.6
				C153.8,124.6,152,126.6,152,129.2 M149.9,129.2c0-3.7,2.7-6.4,6.2-6.4c2.2,0,3.8,1,4.8,2.3v-7.8h2.1v18.2h-2.1v-2
				c-0.9,1.3-2.6,2.3-4.8,2.3C152.6,135.7,149.9,132.9,149.9,129.2"/>
			<path class="st0" d="M168.4,131.8c0,1.4,1.3,2.1,3,2.1c2.3,0,3.9-1.8,3.9-3.6c-0.8-0.5-2.2-0.8-3.4-0.8
				C169.8,129.6,168.4,130.4,168.4,131.8 M166.3,131.9c0-2.3,2.2-3.9,5.4-3.9c1.4,0,2.6,0.3,3.5,0.7v-0.9c0-1.9-1.5-3.1-3.5-3.1
				c-1.5,0-2.8,0.7-3.8,1.8l-1.3-1.3c1.1-1.5,3.1-2.5,5.1-2.5c3.4,0,5.5,1.9,5.5,4.9v7.8h-2v-1.9c-0.8,1.3-2.3,2.1-4.1,2.1
				C168.3,135.7,166.3,134.3,166.3,131.9"/>
			<polygon class="st0" points="180.3,133.7 187.1,124.8 180.4,124.8 180.4,123 189.5,123 189.5,124.8 182.7,133.6 189.8,133.6 
				189.8,135.4 180.3,135.4 			"/>
			<path class="st0" d="M194.9,135.4h-2.1V123h2.1V135.4z M193.9,117.6c0.7,0,1.3,0.5,1.3,1.3s-0.5,1.3-1.3,1.3
				c-0.7,0-1.3-0.5-1.3-1.3S193.2,117.6,193.9,117.6"/>
			<path class="st0" d="M204.7,133.8c2.6,0,4.5-2,4.5-4.5c0-2.6-1.9-4.5-4.5-4.5s-4.5,2-4.5,4.5
				C200.2,131.8,202.1,133.8,204.7,133.8 M198.1,129.2c0-3.6,2.8-6.5,6.6-6.5c3.8,0,6.6,2.8,6.6,6.5c0,3.6-2.8,6.5-6.6,6.5
				C201,135.7,198.1,132.8,198.1,129.2"/>
			<path class="st0" d="M214.5,135.4V123h2.1v1.9c0.7-1.1,2.2-2.1,4.1-2.1c3.3,0,5.2,1.9,5.2,5.1v7.5h-2.1v-7c0-2.4-1.3-3.7-3.5-3.7
				c-2.1,0-3.8,1.5-3.8,3.7v7H214.5z"/>
			<path class="st0" d="M231.2,128h8.1c-0.1-2-1.8-3.4-3.9-3.4C233.3,124.6,231.5,126,231.2,128 M235.4,122.8c3.1,0,6,2.2,6,5.8
				c0,0.4,0,0.8-0.1,1.1h-10.2c0.1,2.3,1.8,4.1,4.4,4.1c1.7,0,3-0.8,3.9-2.1l1.6,1.1c-1.1,1.8-3.1,2.8-5.5,2.8
				c-3.7,0-6.5-2.8-6.5-6.5C229,125.6,231.9,122.8,235.4,122.8"/>
			<rect x="250.7" y="117.9" class="st0" width="4.2" height="17.5"/>
			<path class="st0" d="M263.2,117.9v11c0,1.9,1.2,3.1,3.2,3.1c2,0,3.2-1.2,3.2-3.1v-11h4.2v11.2c0,4.1-2.8,6.6-7.4,6.6
				c-4.7,0-7.4-2.4-7.4-6.6v-11.2H263.2z"/>
			<path class="st0" d="M108.2,146.5v6.6h5.3c2.5,0,3.7-1.3,3.7-3.3c0-2-1.3-3.3-3.7-3.3H108.2z M113.6,144.5c3.5,0,5.9,2,5.9,5.2
				c0,2.5-1.5,4.3-3.8,4.9l4.3,7.4h-2.5l-4.1-7.1h-5.1v7.1h-2.1v-17.5H113.6z"/>
			<path class="st0" d="M123,157.2v-7.5h2v7c0,2.4,1.3,3.7,3.5,3.7c2.1,0,3.8-1.4,3.8-3.7v-7h2.1V162h-2.1v-1.9
				c-0.7,1.2-2.2,2.1-4.2,2.1C124.9,162.3,123,160.4,123,157.2"/>
			<path class="st0" d="M139.4,158.4c0.7,1.2,1.9,2.1,3.7,2.1c1.6,0,2.8-0.7,2.8-1.7c0-1.1-0.9-1.5-2.9-2c-2.6-0.6-4.5-1.4-4.5-3.8
				c0-2.2,2.1-3.6,4.6-3.6c2.2,0,3.9,1.1,4.6,2.3l-1.4,1.2c-0.6-0.9-1.6-1.6-3.2-1.6c-1.6,0-2.6,0.7-2.6,1.7c0,1.2,1,1.5,3.1,2
				c2.7,0.6,4.4,1.5,4.4,3.8c0,2.2-2.2,3.6-4.8,3.6c-2.6,0-4.4-1.1-5.3-2.8L139.4,158.4z"/>
			<path class="st0" d="M150.5,155.9c0-3.6,2.9-6.5,6.6-6.5c2.5,0,4.6,1.2,5.7,3.3l-1.6,1c-0.9-1.5-2.3-2.4-4-2.4
				c-2.5,0-4.5,2-4.5,4.5c0,2.5,1.9,4.5,4.5,4.5c1.7,0,3.2-0.9,4-2.3l1.6,1c-1,2-3.2,3.2-5.6,3.2
				C153.4,162.3,150.5,159.5,150.5,155.9"/>
			<path class="st0" d="M171.6,160.4c2.6,0,4.5-2,4.5-4.5c0-2.6-1.9-4.5-4.5-4.5c-2.6,0-4.5,2-4.5,4.5
				C167.1,158.4,169,160.4,171.6,160.4 M165,155.9c0-3.6,2.8-6.5,6.6-6.5c3.8,0,6.6,2.8,6.6,6.5c0,3.6-2.8,6.5-6.6,6.5
				C167.8,162.3,165,159.5,165,155.9"/>
			<path class="st0" d="M181.6,162v-12.4h2.1v1.9c0.7-1.1,2.2-2.1,4.1-2.1c3.3,0,5.2,1.9,5.2,5.1v7.5H191v-7c0-2.4-1.3-3.7-3.5-3.7
				c-2.1,0-3.8,1.5-3.8,3.7v7H181.6z"/>
			<path class="st0" d="M199.3,162h-2.1v-12.4h2.1V162z M198.3,144.2c0.7,0,1.3,0.5,1.3,1.3c0,0.7-0.5,1.3-1.3,1.3
				c-0.7,0-1.3-0.5-1.3-1.3C197.1,144.8,197.6,144.2,198.3,144.2"/>
			<path class="st0" d="M211.9,153.3c0-5.2,4-9,9-9c3.1,0,5.8,1.5,7.5,4l-1.7,1.2c-1.4-2.1-3.4-3.2-5.8-3.2c-3.8,0-6.8,3-6.8,7
				s2.8,7,6.8,7c3.9,0,5.9-2.6,6.2-5.2h-6.2v-1.9h8.5c0,0.2,0,0.5,0,0.8c0,4.6-3.1,8.3-8.5,8.3C215.9,162.3,211.9,158.4,211.9,153.3
				"/>
			<path class="st0" d="M232.8,162v-18.2h2.1v7.6c0.7-1.1,2.2-2.1,4.1-2.1c3.2,0,5.2,1.9,5.2,5.1v7.5h-2v-7c0-2.4-1.3-3.7-3.5-3.7
				c-2.1,0-3.8,1.5-3.8,3.7v7H232.8z"/>
			<path class="st0" d="M250.5,162h-2.1v-12.4h2.1V162z M249.5,144.2c0.7,0,1.3,0.5,1.3,1.3c0,0.7-0.5,1.3-1.3,1.3
				c-0.7,0-1.3-0.5-1.3-1.3C248.2,144.8,248.7,144.2,249.5,144.2"/>
			<path class="st0" d="M256.1,155.8c0,2.6,1.8,4.6,4.4,4.6c2.6,0,4.6-2.1,4.6-4.6c0-2.6-1.9-4.6-4.6-4.6
				C257.9,151.3,256.1,153.3,256.1,155.8 M254.1,155.8c0-3.7,2.7-6.4,6.2-6.4c2.2,0,3.8,1,4.8,2.3v-2h2.1v11.5
				c0,3.8-2.6,6.3-6.8,6.3c-2.3,0-4.4-0.9-5.7-2.4l1.4-1.3c1.1,1.2,2.6,1.9,4.4,1.9c2.9,0,4.7-1.6,4.7-4.1V160
				c-0.9,1.3-2.6,2.3-4.8,2.3C256.8,162.3,254.1,159.5,254.1,155.8"/>
			<path class="st0" d="M273.5,162h-2.1v-12.4h2.1V162z M272.5,144.2c0.7,0,1.3,0.5,1.3,1.3c0,0.7-0.5,1.3-1.3,1.3
				c-0.7,0-1.3-0.5-1.3-1.3C271.2,144.8,271.8,144.2,272.5,144.2"/>
		</g>
	</g>
	<path class="st0" d="M67.2,144.2c0,7.4-5.1,11.9-13.5,11.9c-8.5,0-13.5-4.4-13.5-11.9v-20.3H48v19.9c0,3.5,2.2,5.7,5.8,5.7
		c3.6,0,5.8-2.2,5.8-5.7v-19.9h7.7V144.2z M33,155.7h-7.7v-31.8H33V155.7z M46.3,99.9c-22.1,0-40.1,17.9-40.1,40.1
		s17.9,40.1,40.1,40.1s40.1-17.9,40.1-40.1S68.4,99.9,46.3,99.9"/>
</g>
</svg>
